<?xml version="1.0" encoding="UTF-8" standalone="no"?>
<svg
   xmlns:dc="http://purl.org/dc/elements/1.1/"
   xmlns:cc="http://creativecommons.org/ns#"
   xmlns:rdf="http://www.w3.org/1999/02/22-rdf-syntax-ns#"
   xmlns:svg="http://www.w3.org/2000/svg"
   xmlns="http://www.w3.org/2000/svg"
   xmlns:sodipodi="http://sodipodi.sourceforge.net/DTD/sodipodi-0.dtd"
   xmlns:inkscape="http://www.inkscape.org/namespaces/inkscape"
   version="1.1"
   x="0px"
   y="0px"
   viewBox="0 0 100 100"
   enable-background="new 0 0 100 100"
   xml:space="preserve"
   id="svg3853"
   sodipodi:docname="logo.svg"
   inkscape:version="1.0.1 (3bc2e813f5, 2020-09-07)"
   width="100"
   height="100"
   inkscape:export-filename="/home/andrei/Dev/FastFinder/images/logo.png"
   inkscape:export-xdpi="122.88"
   inkscape:export-ydpi="122.88"><metadata
     id="metadata3859"><rdf:RDF><cc:Work
         rdf:about=""><dc:format>image/svg+xml</dc:format><dc:type
           rdf:resource="http://purl.org/dc/dcmitype/StillImage" /><dc:title /></cc:Work></rdf:RDF></metadata><defs
     id="defs3857"><linearGradient
       id="linearGradient865"><stop
         style="stop-color:#003eaa;stop-opacity:1"
         offset="0"
         id="stop863" /><stop
         style="stop-color:#000f40;stop-opacity:1"
         offset="1"
         id="stop861" /></linearGradient><linearGradient
       id="linearGradient991"><stop
         style="stop-color:#00feff;stop-opacity:1"
         offset="0"
         id="stop987" /><stop
         style="stop-color:#00c8d7;stop-opacity:0.99481863"
         offset="1"
         id="stop989" /></linearGradient></defs><sodipodi:namedview
     pagecolor="#ffffff"
     bordercolor="#666666"
     borderopacity="1"
     objecttolerance="10"
     gridtolerance="10"
     guidetolerance="10"
     inkscape:pageopacity="0"
     inkscape:pageshadow="2"
     inkscape:window-width="1600"
     inkscape:window-height="839"
     id="namedview3855"
     showgrid="false"
     inkscape:zoom="4.6657695"
     inkscape:cx="41.041655"
     inkscape:cy="38.562142"
     inkscape:window-x="0"
     inkscape:window-y="0"
     inkscape:window-maximized="1"
     inkscape:current-layer="layer2"
     inkscape:document-rotation="0"><inkscape:grid
       type="xygrid"
       id="grid872" /></sodipodi:namedview><rect
     style="fill:#000000;fill-opacity:0"
     id="rect4666"
     width="90.04113"
     height="71.386604"
     x="0.29377204"
     y="-24.412457" /><g
     inkscape:groupmode="layer"
     id="layer1"
     inkscape:label="bg"
     transform="translate(0,-25)"><ellipse
       style="opacity:0.93699999;fill:#f6fafb;fill-opacity:1;stroke:#17234d;stroke-width:3.39232254;stroke-miterlimit:4;stroke-dasharray:none;stroke-opacity:1"
       id="path864"
       cx="50.088135"
       cy="75.132195"
       rx="48.08556"
       ry="48.012123"
       inkscape:export-xdpi="123.6188"
       inkscape:export-ydpi="123.6188" /></g><g
     inkscape:groupmode="layer"
     id="layer2"
     inkscape:label="fg"
     transform="translate(0,-25)"><g
       id="g10"
       transform="matrix(1.2054033,0,0,1.2054033,10.110846,33.549012)"
       style="fill:#027fff;fill-opacity:1"><path
         d="m 43.6,27.9 c -0.7,0.3 -1.5,0.6 -2.5,0.8 0.2,0.4 0.3,1.1 0.2,1.3 -0.4,0.7 -1.7,0.8 -2.4,0.4 -0.2,-0.1 -0.4,-0.8 -0.4,-1.3 -0.4,0 -0.7,0.1 -1.1,0.1 0.2,0.5 0.3,1.1 0.2,1.3 -0.6,0.8 -2.1,0.6 -2.6,0.1 -0.2,-0.2 -0.2,-0.8 -0.1,-1.3 -0.3,0 -0.7,0 -1.1,0 0.1,0.5 0.1,1.1 -0.1,1.3 -0.5,0.5 -2,0.7 -2.6,-0.1 -0.2,-0.2 0,-0.8 0.2,-1.3 -0.4,0 -0.7,-0.1 -1.1,-0.1 -0.1,0.5 -0.2,1.1 -0.4,1.3 -0.6,0.4 -1.9,0.3 -2.4,-0.4 -0.2,-0.2 0,-0.9 0.1,-1.3 -1,-0.2 -1.8,-0.5 -2.5,-0.8 -0.9,-0.4 -2,-1.4 -3.2,-3 0.9,4 2.4,9.5 4,10.7 0.5,0.3 1.1,0.6 1.8,0.9 0,-0.5 0.1,-1.1 0.3,-1.3 0.6,-0.4 2,-0.2 2.6,0.6 0.1,0.2 -0.1,0.9 -0.3,1.3 0.3,0.1 0.7,0.1 1,0.1 0,-0.5 0.1,-1.1 0.3,-1.3 0.6,-0.4 1.6,-0.4 2.1,0.1 0.2,0.2 0.1,0.9 0,1.3 0.3,0 0.7,0 1,0 -0.1,-0.5 -0.1,-1.1 0,-1.3 0.5,-0.5 1.6,-0.5 2.1,-0.1 0.2,0.2 0.3,0.8 0.3,1.3 0.4,0 0.7,-0.1 1,-0.1 -0.2,-0.4 -0.4,-1.1 -0.3,-1.3 0.5,-0.8 1.9,-1 2.6,-0.6 0.3,0.1 0.3,0.8 0.3,1.3 0.7,-0.2 1.3,-0.5 1.8,-0.9 1.7,-1.2 3.1,-6.6 4,-10.7 -0.8,1.6 -1.9,2.6 -2.8,3 z"
         id="path2"
         style="fill:#027fff;fill-opacity:1" /><path
         d="m 60.9,43 c 0.4,0.6 0.8,1.3 1.2,1.9 -0.6,-4.4 -2.2,-8.7 -4.5,-12.6 0.8,0.6 1.6,1.1 2.5,1.7 -2,-4.5 -5.5,-8.2 -9.7,-10.6 -0.3,-0.5 -0.5,-0.9 -0.7,-1.4 1,0.4 1.9,0.9 2.9,1.4 -1.2,-1.1 -1.6,-2.8 -2.1,-4.3 -0.1,-0.4 -0.3,-0.8 -0.6,-1.2 1.8,-2 2.6,-4.4 2.8,-6.6 C 53,7.2 51.1,3.1 47.4,1.2 47,1 46.3,1.9 46.5,2.2 48.1,5.1 47.3,8.3 45.6,9.6 44,9.1 42.1,9.2 40.6,10.1 41.2,9.2 41.4,8 41,7 40.7,6 39.9,5.2 38.9,4.8 39.9,5.9 40,7.5 39.3,8.9 39.2,8.1 38.8,7.5 38.5,6.8 38.2,6.1 37.9,5.3 38.3,4.6 37.8,5.4 37.4,6.3 37.4,7.2 36.7,6.1 36.4,4.6 37,3.3 37.6,2 39.1,1 40.5,1.3 39.5,0.7 38.2,0.7 37.1,1.3 36,1.9 35.3,3 35.1,4.1 34.6,3.4 34.3,2.6 34.3,1.8 33,3.4 32.8,5.8 34,7.3 32.4,6.8 31.3,5.2 31.5,3.5 30.8,4.4 30.3,5.4 30,6.4 29,5.3 27.6,4.7 26,4.7 27.4,4.9 28.4,6.1 28.6,7.4 26.7,6.5 24.3,6.8 22.5,8.1 23.3,8.2 24.1,8.3 24.9,8.9 24.1,9.2 23.4,9.5 22.8,10 20.6,9.2 19.1,5.6 21,2.2 21.2,1.9 20.5,1 20.1,1.2 14.3,4.1 12.9,12.3 17.3,17.5 17,18 16.7,18.6 16.5,19.2 c 0.4,-0.4 0.9,-0.7 1.4,-1 0.3,0.3 0.5,0.5 0.8,0.8 -1.2,1.4 -2.4,3 -3.1,4.6 C 11.5,26 8.1,29.7 6.2,34.1 7,33.5 7.9,33 8.7,32.4 6,36.2 4.5,40.5 3.9,45 4.3,44.4 4.7,43.7 5.1,43.1 5.3,49.5 3.5,56.5 6.6,58.8 6.1,59.5 6.3,60.7 6.9,61.5 7.6,60.8 8,60 8.1,59.5 c 1,0.2 2,0.1 2.1,0.1 0,0.8 0.7,1.7 1.5,2.1 0.3,-1 0.3,-1.9 0.1,-2.4 0.6,-0.2 1.1,-0.5 1.5,-0.8 0.5,0.6 1.5,1 2.3,0.9 -0.3,-1.1 -0.8,-1.8 -1.3,-2.2 1.4,-3.5 -2.4,-9.9 -3.1,-13.3 0.4,0.7 0.8,1.4 1.2,2.1 -0.2,-2 0,-4 0.6,-5.9 0.1,0.7 0.2,1.4 0.3,2.2 -0.1,-2.7 0.5,-5.3 1.6,-7.7 0,0.5 0,1 0.2,1.4 0,-0.9 0.3,-1.9 0.9,-2.6 -0.1,0.6 -0.2,1.2 -0.3,1.8 0,0 0,0 0,0 0,0 0,0.1 0,0.1 0,0.2 0,0.5 -0.1,0.7 0,0.4 -0.1,0.9 -0.1,1.3 v 0.8 c 0,0.5 0,1 0.1,1.5 0,0.2 0,0.5 0,0.7 0.1,0.8 0.2,1.5 0.3,2.3 0.5,-0.9 1.1,-1.7 2,-2.1 -0.7,2.4 0,5 1.7,6.7 -0.2,-0.9 -0.1,-1.9 0.4,-2.8 -0.1,1.3 0.2,2.6 0.7,3.7 -0.6,1.5 -1.1,3.3 -1.3,5.3 0.3,-0.6 0.6,-1.1 0.8,-1.7 -0.6,2.7 -0.7,6 -0.1,9.6 0.7,4.6 2.8,3.8 3.2,2.2 0.5,2.3 2.6,1.9 2.6,-0.6 1,2.6 3.4,2.2 2.2,-2.1 -0.6,-2 -1.1,-3.9 -1.6,-5.5 0.2,0.3 0.3,0.6 0.5,0.9 0,-0.2 0,-0.5 -0.1,-0.7 0.1,0.2 0.2,0.3 0.4,0.5 -0.1,-0.9 -0.2,-1.7 -0.3,-2.5 0.4,0.4 0.9,0.7 1.4,1 -0.4,-1 -0.3,-2.3 0.1,-3.3 -0.2,2 0.6,3.7 1.7,5.1 0.3,-1.3 0.9,-2.5 2,-3.5 0.5,1.3 0.3,2.4 0,3.6 1.9,-1 3.3,-2.6 4.2,-4.6 0,1.5 -0.4,3.2 -1.3,4.6 1.8,-0.6 3.6,-1.4 5.2,-2.6 -0.1,0.7 -0.2,1.5 -0.3,2.3 0.1,-0.2 0.2,-0.4 0.4,-0.5 0,0.2 0,0.5 0,0.7 0.2,-0.3 0.3,-0.6 0.5,-0.9 -1.9,6.3 -2.3,7.3 -1.9,8.4 0.4,1.2 1.7,1.1 2.4,-0.8 0,2.5 2.2,2.9 2.6,0.6 0.4,1.7 2.6,2.3 3.2,-2.2 0.6,-3.6 0.5,-6.9 -0.1,-9.6 0.3,0.5 0.5,1.1 0.8,1.7 -0.2,-1.8 -0.6,-3.4 -1.1,-4.8 0.7,-1.3 1.3,-2.6 2,-4 0.3,1 0.3,1.9 0.2,2.8 1.9,-2.2 2.3,-5.4 1,-7.8 0.7,0.4 1.4,1.1 2,2 0,-1.8 0,-3.6 -0.3,-5.4 -0.1,-0.5 -0.2,-1.1 -0.4,-1.6 1.1,2.4 1.7,5.1 1.6,7.7 0.1,-0.7 0.2,-1.4 0.3,-2.2 0.6,1.8 0.8,3.8 0.7,5.8 0.4,-0.7 0.8,-1.4 1.2,-2.1 -0.7,3.3 -4.5,9.8 -3.1,13.3 -0.5,0.4 -1,1.1 -1.3,2.2 0.8,0.1 1.8,-0.3 2.3,-0.9 0.4,0.3 0.9,0.6 1.5,0.8 -0.2,0.6 -0.2,1.5 0.1,2.4 0.8,-0.4 1.5,-1.3 1.5,-2.1 0.1,0 0.1,0 0.1,0 0.8,0.1 1.4,0 2,-0.1 0.1,0.6 0.5,1.3 1.2,2 0.5,-0.8 0.7,-2 0.3,-2.7 2.9,-2.4 1.1,-9.3 1.2,-15.8 z M 39,13.5 c 2.3,0 4.1,1.8 4.1,4.1 0,2.3 -1.8,4.1 -4.1,4.1 -2.3,0 -4.1,-1.8 -4.1,-4.1 0,-2.3 1.8,-4.1 4.1,-4.1 z m -10.9,0 c 2.3,0 4.1,1.8 4.1,4.1 0,2.3 -1.8,4.1 -4.1,4.1 -2.3,0 -4.1,-1.8 -4.1,-4.1 -0.1,-2.3 1.8,-4.1 4.1,-4.1 z m 20.3,9.3 -0.1,0.6 c -1,4.6 -2.6,11.5 -4.8,13 -1.9,1.3 -5.5,2 -9.1,2 -3.6,0 -7.2,-0.7 -9.1,-2 -2.1,-1.5 -3.5,-7.3 -4.8,-13.1 l -0.1,-0.5 c -0.1,-0.2 0.1,-0.5 0.3,-0.6 0.2,-0.1 0.5,0 0.6,0.2 2.2,3.2 3.5,4.2 4.3,4.6 3.8,1.8 13.9,1.8 17.8,0 0.8,-0.4 2.1,-1.4 4.3,-4.6 0.1,-0.2 0.4,-0.3 0.6,-0.2 0,0.1 0.1,0.4 0.1,0.6 z"
         id="path4"
         style="fill:#027fff;fill-opacity:1" /><path
         d="m 28.1,19.1 c 0.8,0 1.5,-0.7 1.5,-1.5 0,-0.2 0,-0.3 -0.1,-0.5 -0.1,0.1 -0.3,0.2 -0.4,0.2 -0.3,0 -0.6,-0.3 -0.6,-0.6 0,-0.2 0.1,-0.4 0.3,-0.5 -0.2,-0.1 -0.4,-0.1 -0.6,-0.1 -0.8,0 -1.5,0.7 -1.5,1.5 0,0.8 0.5,1.5 1.4,1.5 z m -0.4,-1.5 c 0.2,0 0.4,0.2 0.4,0.4 0,0.2 -0.2,0.4 -0.4,0.4 -0.2,0 -0.4,-0.2 -0.4,-0.4 0,-0.2 0.2,-0.4 0.4,-0.4 z"
         id="path6"
         style="fill:#027fff;fill-opacity:1" /><path
         d="m 39,19.1 c 0.8,0 1.5,-0.7 1.5,-1.5 0,-0.2 0,-0.3 -0.1,-0.5 -0.1,0.1 -0.3,0.2 -0.4,0.2 -0.3,0 -0.6,-0.3 -0.6,-0.6 0,-0.2 0.1,-0.4 0.3,-0.5 -0.2,-0.1 -0.4,-0.1 -0.6,-0.1 -0.8,0 -1.5,0.7 -1.5,1.5 0,0.8 0.6,1.5 1.4,1.5 z m -0.3,-1.5 c 0.2,0 0.4,0.2 0.4,0.4 0,0.2 -0.2,0.4 -0.4,0.4 -0.2,0 -0.4,-0.2 -0.4,-0.4 0,-0.2 0.2,-0.4 0.4,-0.4 z"
         id="path8"
         style="fill:#027fff;fill-opacity:1" /></g></g></svg>
